<svg xmlns="http://www.w3.org/2000/svg" viewBox="0 0 32 32" fill="none">
  <!-- Background circle -->
  <circle cx="16" cy="16" r="15" fill="url(#gradient)" stroke="#e5e7eb" stroke-width="0.5"/>
  
  <!-- Central brain/thought symbol -->
  <path d="M16 8c-1.5 0-2.8 0.8-3.5 2c-0.7-0.6-1.6-1-2.5-1c-2.2 0-4 1.8-4 4c0 1.5 0.8 2.8 2 3.5c-0.2 0.5-0.3 1-0.3 1.5c0 2.2 1.8 4 4 4c0.5 0 1-0.1 1.5-0.3c0.7 1.2 2 2 3.5 2s2.8-0.8 3.5-2c0.5 0.2 1 0.3 1.5 0.3c2.2 0 4-1.8 4-4c0-0.5-0.1-1-0.3-1.5c1.2-0.7 2-2 2-3.5c0-2.2-1.8-4-4-4c-0.9 0-1.8 0.4-2.5 1c-0.7-1.2-2-2-3.5-2z" fill="#ffffff" opacity="0.9"/>
  
  <!-- Connection nodes -->
  <circle cx="16" cy="16" r="2" fill="#6366f1"/>
  <circle cx="10" cy="13" r="1.5" fill="#8b5cf6"/>
  <circle cx="22" cy="13" r="1.5" fill="#8b5cf6"/>
  <circle cx="12" cy="20" r="1.5" fill="#8b5cf6"/>
  <circle cx="20" cy="20" r="1.5" fill="#8b5cf6"/>
  
  <!-- Connecting lines -->
  <line x1="16" y1="16" x2="10" y2="13" stroke="#a78bfa" stroke-width="1" opacity="0.6"/>
  <line x1="16" y1="16" x2="22" y2="13" stroke="#a78bfa" stroke-width="1" opacity="0.6"/>
  <line x1="16" y1="16" x2="12" y2="20" stroke="#a78bfa" stroke-width="1" opacity="0.6"/>
  <line x1="16" y1="16" x2="20" y2="20" stroke="#a78bfa" stroke-width="1" opacity="0.6"/>
  
  <!-- Gradient definition -->
  <defs>
    <linearGradient id="gradient" x1="0%" y1="0%" x2="100%" y2="100%">
      <stop offset="0%" style="stop-color:#f3f4f6;stop-opacity:1" />
      <stop offset="100%" style="stop-color:#e5e7eb;stop-opacity:1" />
    </linearGradient>
  </defs>
</svg>